<?xml version="1.0" encoding="UTF-8" standalone="no"?>
<svg
   xmlns:dc="http://purl.org/dc/elements/1.1/"
   xmlns:cc="http://creativecommons.org/ns#"
   xmlns:rdf="http://www.w3.org/1999/02/22-rdf-syntax-ns#"
   xmlns:svg="http://www.w3.org/2000/svg"
   xmlns="http://www.w3.org/2000/svg"
   xmlns:sodipodi="http://sodipodi.sourceforge.net/DTD/sodipodi-0.dtd"
   xmlns:inkscape="http://www.inkscape.org/namespaces/inkscape"
   style="font-style:normal;font-weight:normal;font-size:12px;font-family:Dialog;color-interpolation:auto;fill:#000000;fill-opacity:1;stroke:#000000;stroke-width:1;stroke-linecap:square;stroke-linejoin:miter;stroke-miterlimit:10;stroke-dasharray:none;stroke-dashoffset:0;stroke-opacity:1;color-rendering:auto;image-rendering:auto;shape-rendering:auto;text-rendering:auto"
   width="971.70074"
   height="375.01645"
   version="1.1"
   id="svg155"
   sodipodi:docname="CtScanModule_AveragingExample.svg"
   inkscape:version="1.0.2-2 (e86c870879, 2021-01-15)">
  <metadata
     id="metadata159">
    <rdf:RDF>
      <cc:Work
         rdf:about="">
        <dc:format>image/svg+xml</dc:format>
        <dc:type
           rdf:resource="http://purl.org/dc/dcmitype/StillImage" />
        <dc:title></dc:title>
      </cc:Work>
    </rdf:RDF>
  </metadata>
  <sodipodi:namedview
     pagecolor="#ffffff"
     bordercolor="#666666"
     borderopacity="1"
     objecttolerance="10"
     gridtolerance="10"
     guidetolerance="10"
     inkscape:pageopacity="0"
     inkscape:pageshadow="2"
     inkscape:window-width="2560"
     inkscape:window-height="1377"
     id="namedview157"
     showgrid="false"
     inkscape:snap-object-midpoints="true"
     inkscape:snap-center="true"
     fit-margin-top="0"
     fit-margin-left="0"
     fit-margin-right="0"
     fit-margin-bottom="0"
     inkscape:zoom="0.91128386"
     inkscape:cx="474.91722"
     inkscape:cy="271.97226"
     inkscape:window-x="-8"
     inkscape:window-y="-8"
     inkscape:window-maximized="1"
     inkscape:current-layer="g153" />
  <!--Generated by the Batik Graphics2D SVG Generator-->
  <defs
     id="genericDefs" />
  <g
     id="g153"
     transform="translate(-38.707834,-17.436275)">
    <defs
       id="defs1">
      <clipPath
         clipPathUnits="userSpaceOnUse"
         id="clipPath1">
        <path
           d="M 0,0 H 800 V 400 H 0 Z"
           id="path3" />
      </clipPath>
    </defs>
    <rect
       style="fill:#ffffff;fill-opacity:1;stroke:#ffffff;stroke-width:0.3;stroke-miterlimit:10;stroke-dasharray:none;stroke-opacity:1"
       id="rect1012"
       width="971.40076"
       height="374.71646"
       x="38.857834"
       y="17.586275" />
    <g
       style="color-interpolation:linearRGB;fill:#262626;stroke:#262626;stroke-width:0.6667;stroke-linejoin:round;color-rendering:optimizeQuality;image-rendering:optimizeQuality;text-rendering:geometricPrecision"
       id="g45">
      <line
         y2="301"
         style="fill:none"
         x1="104"
         x2="724"
         y1="301"
         id="line17" />
      <line
         y2="42"
         style="fill:none"
         x1="104"
         x2="724"
         y1="42"
         id="line19" />
      <line
         y2="294.79999"
         style="fill:none"
         x1="104"
         x2="104"
         y1="301"
         id="line21" />
      <line
         y2="294.79999"
         style="fill:none"
         x1="228"
         x2="228"
         y1="301"
         id="line23" />
      <line
         y2="294.79999"
         style="fill:none"
         x1="352"
         x2="352"
         y1="301"
         id="line25" />
      <line
         y2="294.79999"
         style="fill:none"
         x1="476"
         x2="476"
         y1="301"
         id="line27" />
      <line
         y2="294.79999"
         style="fill:none"
         x1="600"
         x2="600"
         y1="301"
         id="line29" />
      <line
         y2="294.79999"
         style="fill:none"
         x1="724"
         x2="724"
         y1="301"
         id="line31" />
      <line
         y2="48.200001"
         style="fill:none"
         x1="104"
         x2="104"
         y1="42"
         id="line33" />
      <line
         y2="48.200001"
         style="fill:none"
         x1="228"
         x2="228"
         y1="42"
         id="line35" />
      <line
         y2="48.200001"
         style="fill:none"
         x1="352"
         x2="352"
         y1="42"
         id="line37" />
      <line
         y2="48.200001"
         style="fill:none"
         x1="476"
         x2="476"
         y1="42"
         id="line39" />
      <line
         y2="48.200001"
         style="fill:none"
         x1="600"
         x2="600"
         y1="42"
         id="line41" />
      <line
         y2="48.200001"
         style="fill:none"
         x1="724"
         x2="724"
         y1="42"
         id="line43" />
    </g>
    <g
       transform="translate(80,326)"
       style="font-size:18.6667px;font-family:SansSerif;color-interpolation:linearRGB;fill:#262626;stroke:#262626;color-rendering:optimizeQuality;image-rendering:optimizeQuality;text-rendering:geometricPrecision"
       id="g49">
      <path
         style="stroke:none"
         d="m 0.7812,-6.7031 q 0,-2.4219 0.5,-3.8907 0.5,-1.4687 1.4766,-2.2656 0.9766,-0.7968 2.461,-0.7968 1.0937,0 1.9218,0.4374 0.8282,0.4376 1.3672,1.2735 0.5391,0.8359 0.8438,2.0234 0.3046,1.1875 0.3046,3.2188 0,2.3906 -0.4921,3.8593 Q 8.6719,-1.375 7.6953,-0.5703 6.7188,0.2344 5.2188,0.2344 3.25,0.2344 2.1406,-1.1719 0.7812,-2.875 0.7812,-6.7031 Z m 1.7188,0 q 0,3.3437 0.7891,4.4531 0.789,1.1094 1.9297,1.1094 1.1562,0 1.9374,-1.1172 0.7813,-1.1172 0.7813,-4.4453 0,-3.3594 -0.7813,-4.4688 -0.7812,-1.1093 -1.9531,-1.1093 -1.1562,0 -1.8281,0.9843 Q 2.5,-10.0625 2.5,-6.7031 Z M 12.0945,0 v -1.9062 h 1.9062 V 0 Z m 4.2458,-6.7031 q 0,-2.4219 0.5,-3.8907 0.5,-1.4687 1.4765,-2.2656 0.9766,-0.7968 2.461,-0.7968 1.0937,0 1.9218,0.4374 0.8282,0.4376 1.3672,1.2735 0.5391,0.8359 0.8438,2.0234 0.3047,1.1875 0.3047,3.2188 0,2.3906 -0.4922,3.8593 -0.4922,1.4688 -1.4688,2.2735 -0.9765,0.8047 -2.4765,0.8047 -1.9688,0 -3.0782,-1.4063 -1.3593,-1.7031 -1.3593,-5.5312 z m 1.7187,0 q 0,3.3437 0.7891,4.4531 0.789,1.1094 1.9297,1.1094 1.1562,0 1.9375,-1.1172 0.7812,-1.1172 0.7812,-4.4453 0,-3.3594 -0.7812,-4.4688 -0.7813,-1.1093 -1.9532,-1.1093 -1.1562,0 -1.8281,0.9843 -0.875,1.2344 -0.875,4.5938 z m 8.657,0 q 0,-2.4219 0.5,-3.8907 0.5,-1.4687 1.4766,-2.2656 0.9765,-0.7968 2.4609,-0.7968 1.0937,0 1.9219,0.4374 0.8281,0.4376 1.3672,1.2735 0.539,0.8359 0.8437,2.0234 0.3047,1.1875 0.3047,3.2188 0,2.3906 -0.4922,3.8593 -0.4922,1.4688 -1.4687,2.2735 -0.9766,0.8047 -2.4766,0.8047 -1.9688,0 -3.0781,-1.4063 Q 26.716,-2.875 26.716,-6.7031 Z m 1.7187,0 q 0,3.3437 0.7891,4.4531 0.7891,1.1094 1.9297,1.1094 1.1562,0 1.9375,-1.1172 0.7812,-1.1172 0.7812,-4.4453 0,-3.3594 -0.7812,-4.4688 -0.7813,-1.1093 -1.9531,-1.1093 -1.1563,0 -1.8282,0.9843 -0.875,1.2344 -0.875,4.5938 z m 8.657,0 q 0,-2.4219 0.5,-3.8907 0.5,-1.4687 1.4766,-2.2656 0.9765,-0.7968 2.4609,-0.7968 1.0938,0 1.9219,0.4374 0.8281,0.4376 1.3672,1.2735 0.539,0.8359 0.8437,2.0234 0.3047,1.1875 0.3047,3.2188 0,2.3906 -0.4922,3.8593 -0.4922,1.4688 -1.4687,2.2735 -0.9766,0.8047 -2.4766,0.8047 -1.9687,0 -3.0781,-1.4063 -1.3594,-1.7031 -1.3594,-5.5312 z m 1.7188,0 q 0,3.3437 0.789,4.4531 0.7891,1.1094 1.9297,1.1094 1.1563,0 1.9375,-1.1172 0.7813,-1.1172 0.7813,-4.4453 0,-3.3594 -0.7813,-4.4688 -0.7812,-1.1093 -1.9531,-1.1093 -1.1563,0 -1.8281,0.9843 -0.875,1.2344 -0.875,4.5938 z"
         id="path47" />
    </g>
    <g
       transform="translate(80,351)"
       style="font-size:18.6667px;font-family:SansSerif;color-interpolation:linearRGB;fill:#2626ff;fill-opacity:1;stroke:#262626;color-rendering:optimizeQuality;image-rendering:optimizeQuality;text-rendering:geometricPrecision"
       id="g53">
      <path
         style="fill:#2626ff;fill-opacity:1;stroke:none"
         d="m 0.7812,-6.7031 q 0,-2.4219 0.5,-3.8907 0.5,-1.4687 1.4766,-2.2656 0.9766,-0.7968 2.461,-0.7968 1.0937,0 1.9218,0.4374 0.8282,0.4376 1.3672,1.2735 0.5391,0.8359 0.8438,2.0234 0.3046,1.1875 0.3046,3.2188 0,2.3906 -0.4921,3.8593 Q 8.6719,-1.375 7.6953,-0.5703 6.7188,0.2344 5.2188,0.2344 3.25,0.2344 2.1406,-1.1719 0.7812,-2.875 0.7812,-6.7031 Z m 1.7188,0 q 0,3.3437 0.7891,4.4531 0.789,1.1094 1.9297,1.1094 1.1562,0 1.9374,-1.1172 0.7813,-1.1172 0.7813,-4.4453 0,-3.3594 -0.7813,-4.4688 -0.7812,-1.1093 -1.9531,-1.1093 -1.1562,0 -1.8281,0.9843 Q 2.5,-10.0625 2.5,-6.7031 Z M 12.0945,0 v -1.9062 h 1.9062 V 0 Z m 4.2458,-6.7031 q 0,-2.4219 0.5,-3.8907 0.5,-1.4687 1.4765,-2.2656 0.9766,-0.7968 2.461,-0.7968 1.0937,0 1.9218,0.4374 0.8282,0.4376 1.3672,1.2735 0.5391,0.8359 0.8438,2.0234 0.3047,1.1875 0.3047,3.2188 0,2.3906 -0.4922,3.8593 -0.4922,1.4688 -1.4688,2.2735 -0.9765,0.8047 -2.4765,0.8047 -1.9688,0 -3.0782,-1.4063 -1.3593,-1.7031 -1.3593,-5.5312 z m 1.7187,0 q 0,3.3437 0.7891,4.4531 0.789,1.1094 1.9297,1.1094 1.1562,0 1.9375,-1.1172 0.7812,-1.1172 0.7812,-4.4453 0,-3.3594 -0.7812,-4.4688 -0.7813,-1.1093 -1.9532,-1.1093 -1.1562,0 -1.8281,0.9843 -0.875,1.2344 -0.875,4.5938 z m 8.657,0 q 0,-2.4219 0.5,-3.8907 0.5,-1.4687 1.4766,-2.2656 0.9765,-0.7968 2.4609,-0.7968 1.0937,0 1.9219,0.4374 0.8281,0.4376 1.3672,1.2735 0.539,0.8359 0.8437,2.0234 0.3047,1.1875 0.3047,3.2188 0,2.3906 -0.4922,3.8593 -0.4922,1.4688 -1.4687,2.2735 -0.9766,0.8047 -2.4766,0.8047 -1.9688,0 -3.0781,-1.4063 Q 26.716,-2.875 26.716,-6.7031 Z m 1.7187,0 q 0,3.3437 0.7891,4.4531 0.7891,1.1094 1.9297,1.1094 1.1562,0 1.9375,-1.1172 0.7812,-1.1172 0.7812,-4.4453 0,-3.3594 -0.7812,-4.4688 -0.7813,-1.1093 -1.9531,-1.1093 -1.1563,0 -1.8282,0.9843 -0.875,1.2344 -0.875,4.5938 z m 8.657,0 q 0,-2.4219 0.5,-3.8907 0.5,-1.4687 1.4766,-2.2656 0.9765,-0.7968 2.4609,-0.7968 1.0938,0 1.9219,0.4374 0.8281,0.4376 1.3672,1.2735 0.539,0.8359 0.8437,2.0234 0.3047,1.1875 0.3047,3.2188 0,2.3906 -0.4922,3.8593 -0.4922,1.4688 -1.4687,2.2735 -0.9766,0.8047 -2.4766,0.8047 -1.9687,0 -3.0781,-1.4063 -1.3594,-1.7031 -1.3594,-5.5312 z m 1.7188,0 q 0,3.3437 0.789,4.4531 0.7891,1.1094 1.9297,1.1094 1.1563,0 1.9375,-1.1172 0.7813,-1.1172 0.7813,-4.4453 0,-3.3594 -0.7813,-4.4688 -0.7812,-1.1093 -1.9531,-1.1093 -1.1563,0 -1.8281,0.9843 -0.875,1.2344 -0.875,4.5938 z"
         id="path51" />
    </g>
    <g
       transform="translate(204,326)"
       style="font-size:18.6667px;font-family:SansSerif;color-interpolation:linearRGB;fill:#262626;stroke:#262626;color-rendering:optimizeQuality;image-rendering:optimizeQuality;text-rendering:geometricPrecision"
       id="g57">
      <path
         style="stroke:none"
         d="m 0.7812,-6.7031 q 0,-2.4219 0.5,-3.8907 0.5,-1.4687 1.4766,-2.2656 0.9766,-0.7968 2.461,-0.7968 1.0937,0 1.9218,0.4374 0.8282,0.4376 1.3672,1.2735 0.5391,0.8359 0.8438,2.0234 0.3046,1.1875 0.3046,3.2188 0,2.3906 -0.4921,3.8593 Q 8.6719,-1.375 7.6953,-0.5703 6.7188,0.2344 5.2188,0.2344 3.25,0.2344 2.1406,-1.1719 0.7812,-2.875 0.7812,-6.7031 Z m 1.7188,0 q 0,3.3437 0.7891,4.4531 0.789,1.1094 1.9297,1.1094 1.1562,0 1.9374,-1.1172 0.7813,-1.1172 0.7813,-4.4453 0,-3.3594 -0.7813,-4.4688 -0.7812,-1.1093 -1.9531,-1.1093 -1.1562,0 -1.8281,0.9843 Q 2.5,-10.0625 2.5,-6.7031 Z M 12.0945,0 v -1.9062 h 1.9062 V 0 Z m 4.2458,-6.7031 q 0,-2.4219 0.5,-3.8907 0.5,-1.4687 1.4765,-2.2656 0.9766,-0.7968 2.461,-0.7968 1.0937,0 1.9218,0.4374 0.8282,0.4376 1.3672,1.2735 0.5391,0.8359 0.8438,2.0234 0.3047,1.1875 0.3047,3.2188 0,2.3906 -0.4922,3.8593 -0.4922,1.4688 -1.4688,2.2735 -0.9765,0.8047 -2.4765,0.8047 -1.9688,0 -3.0782,-1.4063 -1.3593,-1.7031 -1.3593,-5.5312 z m 1.7187,0 q 0,3.3437 0.7891,4.4531 0.789,1.1094 1.9297,1.1094 1.1562,0 1.9375,-1.1172 0.7812,-1.1172 0.7812,-4.4453 0,-3.3594 -0.7812,-4.4688 -0.7813,-1.1093 -1.9532,-1.1093 -1.1562,0 -1.8281,0.9843 -0.875,1.2344 -0.875,4.5938 z M 33.0129,0 H 31.341 v -10.6406 q -0.5938,0.5781 -1.5781,1.1484 -0.9844,0.5703 -1.7657,0.8672 v -1.625 q 1.4063,-0.6562 2.4532,-1.5938 1.0468,-0.9374 1.4843,-1.8124 h 1.0782 z m 4.0788,-6.7031 q 0,-2.4219 0.5,-3.8907 0.5,-1.4687 1.4766,-2.2656 0.9765,-0.7968 2.4609,-0.7968 1.0938,0 1.9219,0.4374 0.8281,0.4376 1.3672,1.2735 0.539,0.8359 0.8437,2.0234 0.3047,1.1875 0.3047,3.2188 0,2.3906 -0.4922,3.8593 -0.4922,1.4688 -1.4687,2.2735 -0.9766,0.8047 -2.4766,0.8047 -1.9687,0 -3.0781,-1.4063 -1.3594,-1.7031 -1.3594,-5.5312 z m 1.7188,0 q 0,3.3437 0.789,4.4531 0.7891,1.1094 1.9297,1.1094 1.1563,0 1.9375,-1.1172 0.7813,-1.1172 0.7813,-4.4453 0,-3.3594 -0.7813,-4.4688 -0.7812,-1.1093 -1.9531,-1.1093 -1.1563,0 -1.8281,0.9843 -0.875,1.2344 -0.875,4.5938 z"
         id="path55" />
    </g>
    <g
       transform="translate(204,351)"
       style="font-size:18.6667px;font-family:SansSerif;color-interpolation:linearRGB;fill:#2626ff;fill-opacity:1;stroke:#262626;color-rendering:optimizeQuality;image-rendering:optimizeQuality;text-rendering:geometricPrecision"
       id="g61">
      <path
         style="fill:#2626ff;fill-opacity:1;stroke:none"
         d="m 0.7812,-6.7031 q 0,-2.4219 0.5,-3.8907 0.5,-1.4687 1.4766,-2.2656 0.9766,-0.7968 2.461,-0.7968 1.0937,0 1.9218,0.4374 0.8282,0.4376 1.3672,1.2735 0.5391,0.8359 0.8438,2.0234 0.3046,1.1875 0.3046,3.2188 0,2.3906 -0.4921,3.8593 Q 8.6719,-1.375 7.6953,-0.5703 6.7188,0.2344 5.2188,0.2344 3.25,0.2344 2.1406,-1.1719 0.7812,-2.875 0.7812,-6.7031 Z m 1.7188,0 q 0,3.3437 0.7891,4.4531 0.789,1.1094 1.9297,1.1094 1.1562,0 1.9374,-1.1172 0.7813,-1.1172 0.7813,-4.4453 0,-3.3594 -0.7813,-4.4688 -0.7812,-1.1093 -1.9531,-1.1093 -1.1562,0 -1.8281,0.9843 Q 2.5,-10.0625 2.5,-6.7031 Z M 12.0945,0 v -1.9062 h 1.9062 V 0 Z m 4.2458,-6.7031 q 0,-2.4219 0.5,-3.8907 0.5,-1.4687 1.4765,-2.2656 0.9766,-0.7968 2.461,-0.7968 1.0937,0 1.9218,0.4374 0.8282,0.4376 1.3672,1.2735 0.5391,0.8359 0.8438,2.0234 0.3047,1.1875 0.3047,3.2188 0,2.3906 -0.4922,3.8593 -0.4922,1.4688 -1.4688,2.2735 -0.9765,0.8047 -2.4765,0.8047 -1.9688,0 -3.0782,-1.4063 -1.3593,-1.7031 -1.3593,-5.5312 z m 1.7187,0 q 0,3.3437 0.7891,4.4531 0.789,1.1094 1.9297,1.1094 1.1562,0 1.9375,-1.1172 0.7812,-1.1172 0.7812,-4.4453 0,-3.3594 -0.7812,-4.4688 -0.7813,-1.1093 -1.9532,-1.1093 -1.1562,0 -1.8281,0.9843 -0.875,1.2344 -0.875,4.5938 z m 8.657,0 q 0,-2.4219 0.5,-3.8907 0.5,-1.4687 1.4766,-2.2656 0.9765,-0.7968 2.4609,-0.7968 1.0937,0 1.9219,0.4374 0.8281,0.4376 1.3672,1.2735 0.539,0.8359 0.8437,2.0234 0.3047,1.1875 0.3047,3.2188 0,2.3906 -0.4922,3.8593 -0.4922,1.4688 -1.4687,2.2735 -0.9766,0.8047 -2.4766,0.8047 -1.9688,0 -3.0781,-1.4063 Q 26.716,-2.875 26.716,-6.7031 Z m 1.7187,0 q 0,3.3437 0.7891,4.4531 0.7891,1.1094 1.9297,1.1094 1.1562,0 1.9375,-1.1172 0.7812,-1.1172 0.7812,-4.4453 0,-3.3594 -0.7812,-4.4688 -0.7813,-1.1093 -1.9531,-1.1093 -1.1563,0 -1.8282,0.9843 -0.875,1.2344 -0.875,4.5938 z m 8.657,3.1406 1.7656,-0.1563 q 0.1875,1.2813 0.8985,1.9297 0.7109,0.6485 1.7109,0.6485 1.2031,0 2.0391,-0.9063 0.8359,-0.9062 0.8359,-2.4219 0,-1.4218 -0.8047,-2.25 -0.8047,-0.8281 -2.1015,-0.8281 -0.7969,0 -1.4454,0.3672 -0.6484,0.3672 -1.0234,0.9609 l -1.5781,-0.2031 1.3281,-7 h 6.7656 v 1.6094 h -5.4375 l -0.7343,3.6406 q 1.2343,-0.8437 2.5781,-0.8437 1.7812,0 3.0078,1.2344 1.2266,1.2343 1.2266,3.1718 0,1.8438 -1.0782,3.1875 -1.3125,1.6563 -3.5781,1.6563 -1.8594,0 -3.0312,-1.0391 -1.1719,-1.0391 -1.3438,-2.7578 z"
         id="path59" />
    </g>
    <g
       transform="translate(328,326)"
       style="font-size:18.6667px;font-family:SansSerif;color-interpolation:linearRGB;fill:#262626;stroke:#262626;color-rendering:optimizeQuality;image-rendering:optimizeQuality;text-rendering:geometricPrecision"
       id="g65">
      <path
         style="stroke:none"
         d="m 0.7812,-6.7031 q 0,-2.4219 0.5,-3.8907 0.5,-1.4687 1.4766,-2.2656 0.9766,-0.7968 2.461,-0.7968 1.0937,0 1.9218,0.4374 0.8282,0.4376 1.3672,1.2735 0.5391,0.8359 0.8438,2.0234 0.3046,1.1875 0.3046,3.2188 0,2.3906 -0.4921,3.8593 Q 8.6719,-1.375 7.6953,-0.5703 6.7188,0.2344 5.2188,0.2344 3.25,0.2344 2.1406,-1.1719 0.7812,-2.875 0.7812,-6.7031 Z m 1.7188,0 q 0,3.3437 0.7891,4.4531 0.789,1.1094 1.9297,1.1094 1.1562,0 1.9374,-1.1172 0.7813,-1.1172 0.7813,-4.4453 0,-3.3594 -0.7813,-4.4688 -0.7812,-1.1093 -1.9531,-1.1093 -1.1562,0 -1.8281,0.9843 Q 2.5,-10.0625 2.5,-6.7031 Z M 12.0945,0 v -1.9062 h 1.9062 V 0 Z m 4.2458,-6.7031 q 0,-2.4219 0.5,-3.8907 0.5,-1.4687 1.4765,-2.2656 0.9766,-0.7968 2.461,-0.7968 1.0937,0 1.9218,0.4374 0.8282,0.4376 1.3672,1.2735 0.5391,0.8359 0.8438,2.0234 0.3047,1.1875 0.3047,3.2188 0,2.3906 -0.4922,3.8593 -0.4922,1.4688 -1.4688,2.2735 -0.9765,0.8047 -2.4765,0.8047 -1.9688,0 -3.0782,-1.4063 -1.3593,-1.7031 -1.3593,-5.5312 z m 1.7187,0 q 0,3.3437 0.7891,4.4531 0.789,1.1094 1.9297,1.1094 1.1562,0 1.9375,-1.1172 0.7812,-1.1172 0.7812,-4.4453 0,-3.3594 -0.7812,-4.4688 -0.7813,-1.1093 -1.9532,-1.1093 -1.1562,0 -1.8281,0.9843 -0.875,1.2344 -0.875,4.5938 z m 17.4382,5.0937 V 0 h -8.9843 q -0.0157,-0.6094 0.1875,-1.1562 0.3437,-0.9219 1.1015,-1.8126 0.7578,-0.8906 2.1797,-2.0624 2.2188,-1.8126 3,-2.875 0.7813,-1.0626 0.7813,-2.0157 0,-0.9843 -0.711,-1.6719 -0.7109,-0.6874 -1.8515,-0.6874 -1.2032,0 -1.9297,0.7265 -0.7266,0.7266 -0.7266,2.0078 l -1.7187,-0.1719 q 0.1718,-1.9218 1.3281,-2.9296 1.1562,-1.0078 3.0937,-1.0078 1.9532,0 3.0938,1.0859 1.1406,1.0859 1.1406,2.6953 0,0.8125 -0.3359,1.6016 -0.336,0.789 -1.1094,1.6562 -0.7734,0.8672 -2.5703,2.3984 -1.5,1.2657 -1.9297,1.711 -0.4297,0.4453 -0.7109,0.8984 z m 1.5945,-5.0937 q 0,-2.4219 0.5,-3.8907 0.5,-1.4687 1.4766,-2.2656 0.9765,-0.7968 2.4609,-0.7968 1.0938,0 1.9219,0.4374 0.8281,0.4376 1.3672,1.2735 0.539,0.8359 0.8437,2.0234 0.3047,1.1875 0.3047,3.2188 0,2.3906 -0.4922,3.8593 -0.4922,1.4688 -1.4687,2.2735 -0.9766,0.8047 -2.4766,0.8047 -1.9687,0 -3.0781,-1.4063 -1.3594,-1.7031 -1.3594,-5.5312 z m 1.7188,0 q 0,3.3437 0.789,4.4531 0.7891,1.1094 1.9297,1.1094 1.1563,0 1.9375,-1.1172 0.7813,-1.1172 0.7813,-4.4453 0,-3.3594 -0.7813,-4.4688 -0.7812,-1.1093 -1.9531,-1.1093 -1.1563,0 -1.8281,0.9843 -0.875,1.2344 -0.875,4.5938 z"
         id="path63" />
    </g>
    <g
       transform="translate(328,351)"
       style="font-size:18.6667px;font-family:SansSerif;color-interpolation:linearRGB;fill:#2626ff;fill-opacity:1;stroke:#262626;color-rendering:optimizeQuality;image-rendering:optimizeQuality;text-rendering:geometricPrecision"
       id="g69">
      <path
         style="fill:#2626ff;fill-opacity:1;stroke:none"
         d="m 0.7812,-6.7031 q 0,-2.4219 0.5,-3.8907 0.5,-1.4687 1.4766,-2.2656 0.9766,-0.7968 2.461,-0.7968 1.0937,0 1.9218,0.4374 0.8282,0.4376 1.3672,1.2735 0.5391,0.8359 0.8438,2.0234 0.3046,1.1875 0.3046,3.2188 0,2.3906 -0.4921,3.8593 Q 8.6719,-1.375 7.6953,-0.5703 6.7188,0.2344 5.2188,0.2344 3.25,0.2344 2.1406,-1.1719 0.7812,-2.875 0.7812,-6.7031 Z m 1.7188,0 q 0,3.3437 0.7891,4.4531 0.789,1.1094 1.9297,1.1094 1.1562,0 1.9374,-1.1172 0.7813,-1.1172 0.7813,-4.4453 0,-3.3594 -0.7813,-4.4688 -0.7812,-1.1093 -1.9531,-1.1093 -1.1562,0 -1.8281,0.9843 Q 2.5,-10.0625 2.5,-6.7031 Z M 12.0945,0 v -1.9062 h 1.9062 V 0 Z m 4.2458,-6.7031 q 0,-2.4219 0.5,-3.8907 0.5,-1.4687 1.4765,-2.2656 0.9766,-0.7968 2.461,-0.7968 1.0937,0 1.9218,0.4374 0.8282,0.4376 1.3672,1.2735 0.5391,0.8359 0.8438,2.0234 0.3047,1.1875 0.3047,3.2188 0,2.3906 -0.4922,3.8593 -0.4922,1.4688 -1.4688,2.2735 -0.9765,0.8047 -2.4765,0.8047 -1.9688,0 -3.0782,-1.4063 -1.3593,-1.7031 -1.3593,-5.5312 z m 1.7187,0 q 0,3.3437 0.7891,4.4531 0.789,1.1094 1.9297,1.1094 1.1562,0 1.9375,-1.1172 0.7812,-1.1172 0.7812,-4.4453 0,-3.3594 -0.7812,-4.4688 -0.7813,-1.1093 -1.9532,-1.1093 -1.1562,0 -1.8281,0.9843 -0.875,1.2344 -0.875,4.5938 z M 33.0129,0 H 31.341 v -10.6406 q -0.5938,0.5781 -1.5781,1.1484 -0.9844,0.5703 -1.7657,0.8672 v -1.625 q 1.4063,-0.6562 2.4532,-1.5938 1.0468,-0.9374 1.4843,-1.8124 h 1.0782 z m 4.0788,-6.7031 q 0,-2.4219 0.5,-3.8907 0.5,-1.4687 1.4766,-2.2656 0.9765,-0.7968 2.4609,-0.7968 1.0938,0 1.9219,0.4374 0.8281,0.4376 1.3672,1.2735 0.539,0.8359 0.8437,2.0234 0.3047,1.1875 0.3047,3.2188 0,2.3906 -0.4922,3.8593 -0.4922,1.4688 -1.4687,2.2735 -0.9766,0.8047 -2.4766,0.8047 -1.9687,0 -3.0781,-1.4063 -1.3594,-1.7031 -1.3594,-5.5312 z m 1.7188,0 q 0,3.3437 0.789,4.4531 0.7891,1.1094 1.9297,1.1094 1.1563,0 1.9375,-1.1172 0.7813,-1.1172 0.7813,-4.4453 0,-3.3594 -0.7813,-4.4688 -0.7812,-1.1093 -1.9531,-1.1093 -1.1563,0 -1.8281,0.9843 -0.875,1.2344 -0.875,4.5938 z"
         id="path67" />
    </g>
    <g
       transform="translate(452,326)"
       style="font-size:18.6667px;font-family:SansSerif;color-interpolation:linearRGB;fill:#262626;stroke:#262626;color-rendering:optimizeQuality;image-rendering:optimizeQuality;text-rendering:geometricPrecision"
       id="g73">
      <path
         style="stroke:none"
         d="m 0.7812,-6.7031 q 0,-2.4219 0.5,-3.8907 0.5,-1.4687 1.4766,-2.2656 0.9766,-0.7968 2.461,-0.7968 1.0937,0 1.9218,0.4374 0.8282,0.4376 1.3672,1.2735 0.5391,0.8359 0.8438,2.0234 0.3046,1.1875 0.3046,3.2188 0,2.3906 -0.4921,3.8593 Q 8.6719,-1.375 7.6953,-0.5703 6.7188,0.2344 5.2188,0.2344 3.25,0.2344 2.1406,-1.1719 0.7812,-2.875 0.7812,-6.7031 Z m 1.7188,0 q 0,3.3437 0.7891,4.4531 0.789,1.1094 1.9297,1.1094 1.1562,0 1.9374,-1.1172 0.7813,-1.1172 0.7813,-4.4453 0,-3.3594 -0.7813,-4.4688 -0.7812,-1.1093 -1.9531,-1.1093 -1.1562,0 -1.8281,0.9843 Q 2.5,-10.0625 2.5,-6.7031 Z M 12.0945,0 v -1.9062 h 1.9062 V 0 Z m 4.2458,-6.7031 q 0,-2.4219 0.5,-3.8907 0.5,-1.4687 1.4765,-2.2656 0.9766,-0.7968 2.461,-0.7968 1.0937,0 1.9218,0.4374 0.8282,0.4376 1.3672,1.2735 0.5391,0.8359 0.8438,2.0234 0.3047,1.1875 0.3047,3.2188 0,2.3906 -0.4922,3.8593 -0.4922,1.4688 -1.4688,2.2735 -0.9765,0.8047 -2.4765,0.8047 -1.9688,0 -3.0782,-1.4063 -1.3593,-1.7031 -1.3593,-5.5312 z m 1.7187,0 q 0,3.3437 0.7891,4.4531 0.789,1.1094 1.9297,1.1094 1.1562,0 1.9375,-1.1172 0.7812,-1.1172 0.7812,-4.4453 0,-3.3594 -0.7812,-4.4688 -0.7813,-1.1093 -1.9532,-1.1093 -1.1562,0 -1.8281,0.9843 -0.875,1.2344 -0.875,4.5938 z m 8.6726,3.1093 1.6719,-0.2187 q 0.2812,1.4219 0.9766,2.0469 0.6953,0.625 1.6796,0.625 1.1875,0 2,-0.8203 0.8125,-0.8203 0.8125,-2.0235 0,-1.1406 -0.7578,-1.8906 -0.7578,-0.75 -1.914,-0.75 -0.4688,0 -1.1719,0.1875 l 0.1875,-1.4687 q 0.1562,0.0156 0.2656,0.0156 1.0625,0 1.9141,-0.5547 0.8515,-0.5547 0.8515,-1.7109 0,-0.9219 -0.6171,-1.5235 -0.6172,-0.6015 -1.6016,-0.6015 -0.9688,0 -1.6172,0.6093 -0.6484,0.6094 -0.8359,1.8438 l -1.6719,-0.2969 q 0.2969,-1.6875 1.3828,-2.6094 1.0859,-0.9218 2.7109,-0.9218 1.1094,0 2.0469,0.4765 0.9375,0.4766 1.4297,1.3047 0.4922,0.8281 0.4922,1.75 0,0.8906 -0.4688,1.6094 -0.4687,0.7187 -1.4062,1.1562 1.2187,0.2656 1.8828,1.1485 0.6641,0.8828 0.6641,2.1953 0,1.7812 -1.2969,3.0156 -1.2969,1.2344 -3.2813,1.2344 -1.7968,0 -2.9765,-1.0625 -1.1797,-1.0625 -1.3516,-2.7657 z m 10.3601,-3.1093 q 0,-2.4219 0.5,-3.8907 0.5,-1.4687 1.4766,-2.2656 0.9765,-0.7968 2.4609,-0.7968 1.0938,0 1.9219,0.4374 0.8281,0.4376 1.3672,1.2735 0.539,0.8359 0.8437,2.0234 0.3047,1.1875 0.3047,3.2188 0,2.3906 -0.4922,3.8593 -0.4922,1.4688 -1.4687,2.2735 -0.9766,0.8047 -2.4766,0.8047 -1.9687,0 -3.0781,-1.4063 -1.3594,-1.7031 -1.3594,-5.5312 z m 1.7188,0 q 0,3.3437 0.789,4.4531 0.7891,1.1094 1.9297,1.1094 1.1563,0 1.9375,-1.1172 0.7813,-1.1172 0.7813,-4.4453 0,-3.3594 -0.7813,-4.4688 -0.7812,-1.1093 -1.9531,-1.1093 -1.1563,0 -1.8281,0.9843 -0.875,1.2344 -0.875,4.5938 z"
         id="path71" />
    </g>
    <g
       transform="translate(452,351)"
       style="font-size:18.6667px;font-family:SansSerif;color-interpolation:linearRGB;fill:#2626ff;fill-opacity:1;stroke:#262626;color-rendering:optimizeQuality;image-rendering:optimizeQuality;text-rendering:geometricPrecision"
       id="g77">
      <path
         style="fill:#2626ff;fill-opacity:1;stroke:none"
         d="m 0.7812,-6.7031 q 0,-2.4219 0.5,-3.8907 0.5,-1.4687 1.4766,-2.2656 0.9766,-0.7968 2.461,-0.7968 1.0937,0 1.9218,0.4374 0.8282,0.4376 1.3672,1.2735 0.5391,0.8359 0.8438,2.0234 0.3046,1.1875 0.3046,3.2188 0,2.3906 -0.4921,3.8593 Q 8.6719,-1.375 7.6953,-0.5703 6.7188,0.2344 5.2188,0.2344 3.25,0.2344 2.1406,-1.1719 0.7812,-2.875 0.7812,-6.7031 Z m 1.7188,0 q 0,3.3437 0.7891,4.4531 0.789,1.1094 1.9297,1.1094 1.1562,0 1.9374,-1.1172 0.7813,-1.1172 0.7813,-4.4453 0,-3.3594 -0.7813,-4.4688 -0.7812,-1.1093 -1.9531,-1.1093 -1.1562,0 -1.8281,0.9843 Q 2.5,-10.0625 2.5,-6.7031 Z M 12.0945,0 v -1.9062 h 1.9062 V 0 Z m 4.2458,-6.7031 q 0,-2.4219 0.5,-3.8907 0.5,-1.4687 1.4765,-2.2656 0.9766,-0.7968 2.461,-0.7968 1.0937,0 1.9218,0.4374 0.8282,0.4376 1.3672,1.2735 0.5391,0.8359 0.8438,2.0234 0.3047,1.1875 0.3047,3.2188 0,2.3906 -0.4922,3.8593 -0.4922,1.4688 -1.4688,2.2735 -0.9765,0.8047 -2.4765,0.8047 -1.9688,0 -3.0782,-1.4063 -1.3593,-1.7031 -1.3593,-5.5312 z m 1.7187,0 q 0,3.3437 0.7891,4.4531 0.789,1.1094 1.9297,1.1094 1.1562,0 1.9375,-1.1172 0.7812,-1.1172 0.7812,-4.4453 0,-3.3594 -0.7812,-4.4688 -0.7813,-1.1093 -1.9532,-1.1093 -1.1562,0 -1.8281,0.9843 -0.875,1.2344 -0.875,4.5938 z M 33.0129,0 H 31.341 v -10.6406 q -0.5938,0.5781 -1.5781,1.1484 -0.9844,0.5703 -1.7657,0.8672 v -1.625 q 1.4063,-0.6562 2.4532,-1.5938 1.0468,-0.9374 1.4843,-1.8124 h 1.0782 z m 4.0788,-3.5625 1.7656,-0.1563 q 0.1875,1.2813 0.8985,1.9297 0.7109,0.6485 1.7109,0.6485 1.2031,0 2.0391,-0.9063 0.8359,-0.9062 0.8359,-2.4219 0,-1.4218 -0.8047,-2.25 -0.8047,-0.8281 -2.1015,-0.8281 -0.7969,0 -1.4454,0.3672 -0.6484,0.3672 -1.0234,0.9609 l -1.5781,-0.2031 1.3281,-7 h 6.7656 v 1.6094 h -5.4375 l -0.7343,3.6406 q 1.2343,-0.8437 2.5781,-0.8437 1.7812,0 3.0078,1.2344 1.2266,1.2343 1.2266,3.1718 0,1.8438 -1.0782,3.1875 -1.3125,1.6563 -3.5781,1.6563 -1.8594,0 -3.0312,-1.0391 -1.1719,-1.0391 -1.3438,-2.7578 z"
         id="path75" />
    </g>
    <g
       transform="translate(576,326)"
       style="font-size:18.6667px;font-family:SansSerif;color-interpolation:linearRGB;fill:#262626;stroke:#262626;color-rendering:optimizeQuality;image-rendering:optimizeQuality;text-rendering:geometricPrecision"
       id="g81">
      <path
         style="stroke:none"
         d="m 0.7812,-6.7031 q 0,-2.4219 0.5,-3.8907 0.5,-1.4687 1.4766,-2.2656 0.9766,-0.7968 2.461,-0.7968 1.0937,0 1.9218,0.4374 0.8282,0.4376 1.3672,1.2735 0.5391,0.8359 0.8438,2.0234 0.3046,1.1875 0.3046,3.2188 0,2.3906 -0.4921,3.8593 Q 8.6719,-1.375 7.6953,-0.5703 6.7188,0.2344 5.2188,0.2344 3.25,0.2344 2.1406,-1.1719 0.7812,-2.875 0.7812,-6.7031 Z m 1.7188,0 q 0,3.3437 0.7891,4.4531 0.789,1.1094 1.9297,1.1094 1.1562,0 1.9374,-1.1172 0.7813,-1.1172 0.7813,-4.4453 0,-3.3594 -0.7813,-4.4688 -0.7812,-1.1093 -1.9531,-1.1093 -1.1562,0 -1.8281,0.9843 Q 2.5,-10.0625 2.5,-6.7031 Z M 12.0945,0 v -1.9062 h 1.9062 V 0 Z m 4.2458,-6.7031 q 0,-2.4219 0.5,-3.8907 0.5,-1.4687 1.4765,-2.2656 0.9766,-0.7968 2.461,-0.7968 1.0937,0 1.9218,0.4374 0.8282,0.4376 1.3672,1.2735 0.5391,0.8359 0.8438,2.0234 0.3047,1.1875 0.3047,3.2188 0,2.3906 -0.4922,3.8593 -0.4922,1.4688 -1.4688,2.2735 -0.9765,0.8047 -2.4765,0.8047 -1.9688,0 -3.0782,-1.4063 -1.3593,-1.7031 -1.3593,-5.5312 z m 1.7187,0 q 0,3.3437 0.7891,4.4531 0.789,1.1094 1.9297,1.1094 1.1562,0 1.9375,-1.1172 0.7812,-1.1172 0.7812,-4.4453 0,-3.3594 -0.7812,-4.4688 -0.7813,-1.1093 -1.9532,-1.1093 -1.1562,0 -1.8281,0.9843 -0.875,1.2344 -0.875,4.5938 z M 32.0754,0 v -3.25 h -5.9063 v -1.5312 l 6.2188,-8.8126 h 1.3593 v 8.8126 H 35.591 V -3.25 H 33.7472 V 0 Z m 0,-4.7812 v -6.1407 l -4.25,6.1407 z m 5.0163,-1.9219 q 0,-2.4219 0.5,-3.8907 0.5,-1.4687 1.4766,-2.2656 0.9765,-0.7968 2.4609,-0.7968 1.0938,0 1.9219,0.4374 0.8281,0.4376 1.3672,1.2735 0.539,0.8359 0.8437,2.0234 0.3047,1.1875 0.3047,3.2188 0,2.3906 -0.4922,3.8593 -0.4922,1.4688 -1.4687,2.2735 -0.9766,0.8047 -2.4766,0.8047 -1.9687,0 -3.0781,-1.4063 -1.3594,-1.7031 -1.3594,-5.5312 z m 1.7188,0 q 0,3.3437 0.789,4.4531 0.7891,1.1094 1.9297,1.1094 1.1563,0 1.9375,-1.1172 0.7813,-1.1172 0.7813,-4.4453 0,-3.3594 -0.7813,-4.4688 -0.7812,-1.1093 -1.9531,-1.1093 -1.1563,0 -1.8281,0.9843 -0.875,1.2344 -0.875,4.5938 z"
         id="path79" />
    </g>
    <g
       transform="translate(576,351)"
       style="font-size:18.6667px;font-family:SansSerif;color-interpolation:linearRGB;fill:#2626ff;fill-opacity:1;stroke:#262626;color-rendering:optimizeQuality;image-rendering:optimizeQuality;text-rendering:geometricPrecision"
       id="g85">
      <path
         style="fill:#2626ff;fill-opacity:1;stroke:none"
         d="m 0.7812,-6.7031 q 0,-2.4219 0.5,-3.8907 0.5,-1.4687 1.4766,-2.2656 0.9766,-0.7968 2.461,-0.7968 1.0937,0 1.9218,0.4374 0.8282,0.4376 1.3672,1.2735 0.5391,0.8359 0.8438,2.0234 0.3046,1.1875 0.3046,3.2188 0,2.3906 -0.4921,3.8593 Q 8.6719,-1.375 7.6953,-0.5703 6.7188,0.2344 5.2188,0.2344 3.25,0.2344 2.1406,-1.1719 0.7812,-2.875 0.7812,-6.7031 Z m 1.7188,0 q 0,3.3437 0.7891,4.4531 0.789,1.1094 1.9297,1.1094 1.1562,0 1.9374,-1.1172 0.7813,-1.1172 0.7813,-4.4453 0,-3.3594 -0.7813,-4.4688 -0.7812,-1.1093 -1.9531,-1.1093 -1.1562,0 -1.8281,0.9843 Q 2.5,-10.0625 2.5,-6.7031 Z M 12.0945,0 v -1.9062 h 1.9062 V 0 Z m 4.2458,-6.7031 q 0,-2.4219 0.5,-3.8907 0.5,-1.4687 1.4765,-2.2656 0.9766,-0.7968 2.461,-0.7968 1.0937,0 1.9218,0.4374 0.8282,0.4376 1.3672,1.2735 0.5391,0.8359 0.8438,2.0234 0.3047,1.1875 0.3047,3.2188 0,2.3906 -0.4922,3.8593 -0.4922,1.4688 -1.4688,2.2735 -0.9765,0.8047 -2.4765,0.8047 -1.9688,0 -3.0782,-1.4063 -1.3593,-1.7031 -1.3593,-5.5312 z m 1.7187,0 q 0,3.3437 0.7891,4.4531 0.789,1.1094 1.9297,1.1094 1.1562,0 1.9375,-1.1172 0.7812,-1.1172 0.7812,-4.4453 0,-3.3594 -0.7812,-4.4688 -0.7813,-1.1093 -1.9532,-1.1093 -1.1562,0 -1.8281,0.9843 -0.875,1.2344 -0.875,4.5938 z m 17.4382,5.0937 V 0 h -8.9843 q -0.0157,-0.6094 0.1875,-1.1562 0.3437,-0.9219 1.1015,-1.8126 0.7578,-0.8906 2.1797,-2.0624 2.2188,-1.8126 3,-2.875 0.7813,-1.0626 0.7813,-2.0157 0,-0.9843 -0.711,-1.6719 -0.7109,-0.6874 -1.8515,-0.6874 -1.2032,0 -1.9297,0.7265 -0.7266,0.7266 -0.7266,2.0078 l -1.7187,-0.1719 q 0.1718,-1.9218 1.3281,-2.9296 1.1562,-1.0078 3.0937,-1.0078 1.9532,0 3.0938,1.0859 1.1406,1.0859 1.1406,2.6953 0,0.8125 -0.3359,1.6016 -0.336,0.789 -1.1094,1.6562 -0.7734,0.8672 -2.5703,2.3984 -1.5,1.2657 -1.9297,1.711 -0.4297,0.4453 -0.7109,0.8984 z m 1.5945,-5.0937 q 0,-2.4219 0.5,-3.8907 0.5,-1.4687 1.4766,-2.2656 0.9765,-0.7968 2.4609,-0.7968 1.0938,0 1.9219,0.4374 0.8281,0.4376 1.3672,1.2735 0.539,0.8359 0.8437,2.0234 0.3047,1.1875 0.3047,3.2188 0,2.3906 -0.4922,3.8593 -0.4922,1.4688 -1.4687,2.2735 -0.9766,0.8047 -2.4766,0.8047 -1.9687,0 -3.0781,-1.4063 -1.3594,-1.7031 -1.3594,-5.5312 z m 1.7188,0 q 0,3.3437 0.789,4.4531 0.7891,1.1094 1.9297,1.1094 1.1563,0 1.9375,-1.1172 0.7813,-1.1172 0.7813,-4.4453 0,-3.3594 -0.7813,-4.4688 -0.7812,-1.1093 -1.9531,-1.1093 -1.1563,0 -1.8281,0.9843 -0.875,1.2344 -0.875,4.5938 z"
         id="path83" />
    </g>
    <g
       transform="translate(700,326)"
       style="font-size:18.6667px;font-family:SansSerif;color-interpolation:linearRGB;fill:#262626;stroke:#262626;color-rendering:optimizeQuality;image-rendering:optimizeQuality;text-rendering:geometricPrecision"
       id="g89">
      <path
         style="stroke:none"
         d="m 0.7812,-6.7031 q 0,-2.4219 0.5,-3.8907 0.5,-1.4687 1.4766,-2.2656 0.9766,-0.7968 2.461,-0.7968 1.0937,0 1.9218,0.4374 0.8282,0.4376 1.3672,1.2735 0.5391,0.8359 0.8438,2.0234 0.3046,1.1875 0.3046,3.2188 0,2.3906 -0.4921,3.8593 Q 8.6719,-1.375 7.6953,-0.5703 6.7188,0.2344 5.2188,0.2344 3.25,0.2344 2.1406,-1.1719 0.7812,-2.875 0.7812,-6.7031 Z m 1.7188,0 q 0,3.3437 0.7891,4.4531 0.789,1.1094 1.9297,1.1094 1.1562,0 1.9374,-1.1172 0.7813,-1.1172 0.7813,-4.4453 0,-3.3594 -0.7813,-4.4688 -0.7812,-1.1093 -1.9531,-1.1093 -1.1562,0 -1.8281,0.9843 Q 2.5,-10.0625 2.5,-6.7031 Z M 12.0945,0 v -1.9062 h 1.9062 V 0 Z m 4.2458,-6.7031 q 0,-2.4219 0.5,-3.8907 0.5,-1.4687 1.4765,-2.2656 0.9766,-0.7968 2.461,-0.7968 1.0937,0 1.9218,0.4374 0.8282,0.4376 1.3672,1.2735 0.5391,0.8359 0.8438,2.0234 0.3047,1.1875 0.3047,3.2188 0,2.3906 -0.4922,3.8593 -0.4922,1.4688 -1.4688,2.2735 -0.9765,0.8047 -2.4765,0.8047 -1.9688,0 -3.0782,-1.4063 -1.3593,-1.7031 -1.3593,-5.5312 z m 1.7187,0 q 0,3.3437 0.7891,4.4531 0.789,1.1094 1.9297,1.1094 1.1562,0 1.9375,-1.1172 0.7812,-1.1172 0.7812,-4.4453 0,-3.3594 -0.7812,-4.4688 -0.7813,-1.1093 -1.9532,-1.1093 -1.1562,0 -1.8281,0.9843 -0.875,1.2344 -0.875,4.5938 z m 8.657,3.1406 1.7656,-0.1563 q 0.1875,1.2813 0.8985,1.9297 0.7109,0.6485 1.7109,0.6485 1.2031,0 2.0391,-0.9063 0.8359,-0.9062 0.8359,-2.4219 0,-1.4218 -0.8047,-2.25 -0.8047,-0.8281 -2.1016,-0.8281 -0.7968,0 -1.4453,0.3672 -0.6484,0.3672 -1.0234,0.9609 l -1.5781,-0.2031 1.3281,-7 h 6.7656 v 1.6094 h -5.4375 l -0.7344,3.6406 q 1.2344,-0.8437 2.5782,-0.8437 1.7812,0 3.0078,1.2344 1.2265,1.2343 1.2265,3.1718 0,1.8438 -1.0781,3.1875 -1.3125,1.6563 -3.5781,1.6563 -1.8594,0 -3.0313,-1.0391 -1.1718,-1.0391 -1.3437,-2.7578 z m 10.3757,-3.1406 q 0,-2.4219 0.5,-3.8907 0.5,-1.4687 1.4766,-2.2656 0.9765,-0.7968 2.4609,-0.7968 1.0938,0 1.9219,0.4374 0.8281,0.4376 1.3672,1.2735 0.539,0.8359 0.8437,2.0234 0.3047,1.1875 0.3047,3.2188 0,2.3906 -0.4922,3.8593 -0.4922,1.4688 -1.4687,2.2735 -0.9766,0.8047 -2.4766,0.8047 -1.9687,0 -3.0781,-1.4063 -1.3594,-1.7031 -1.3594,-5.5312 z m 1.7188,0 q 0,3.3437 0.789,4.4531 0.7891,1.1094 1.9297,1.1094 1.1563,0 1.9375,-1.1172 0.7813,-1.1172 0.7813,-4.4453 0,-3.3594 -0.7813,-4.4688 -0.7812,-1.1093 -1.9531,-1.1093 -1.1563,0 -1.8281,0.9843 -0.875,1.2344 -0.875,4.5938 z"
         id="path87" />
    </g>
    <g
       transform="translate(700,351)"
       style="font-size:18.6667px;font-family:SansSerif;color-interpolation:linearRGB;fill:#2626ff;fill-opacity:1;stroke:#262626;color-rendering:optimizeQuality;image-rendering:optimizeQuality;text-rendering:geometricPrecision"
       id="g93">
      <path
         style="fill:#2626ff;fill-opacity:1;stroke:none"
         d="m 0.7812,-6.7031 q 0,-2.4219 0.5,-3.8907 0.5,-1.4687 1.4766,-2.2656 0.9766,-0.7968 2.461,-0.7968 1.0937,0 1.9218,0.4374 0.8282,0.4376 1.3672,1.2735 0.5391,0.8359 0.8438,2.0234 0.3046,1.1875 0.3046,3.2188 0,2.3906 -0.4921,3.8593 Q 8.6719,-1.375 7.6953,-0.5703 6.7188,0.2344 5.2188,0.2344 3.25,0.2344 2.1406,-1.1719 0.7812,-2.875 0.7812,-6.7031 Z m 1.7188,0 q 0,3.3437 0.7891,4.4531 0.789,1.1094 1.9297,1.1094 1.1562,0 1.9374,-1.1172 0.7813,-1.1172 0.7813,-4.4453 0,-3.3594 -0.7813,-4.4688 -0.7812,-1.1093 -1.9531,-1.1093 -1.1562,0 -1.8281,0.9843 Q 2.5,-10.0625 2.5,-6.7031 Z M 12.0945,0 v -1.9062 h 1.9062 V 0 Z m 4.2458,-6.7031 q 0,-2.4219 0.5,-3.8907 0.5,-1.4687 1.4765,-2.2656 0.9766,-0.7968 2.461,-0.7968 1.0937,0 1.9218,0.4374 0.8282,0.4376 1.3672,1.2735 0.5391,0.8359 0.8438,2.0234 0.3047,1.1875 0.3047,3.2188 0,2.3906 -0.4922,3.8593 -0.4922,1.4688 -1.4688,2.2735 -0.9765,0.8047 -2.4765,0.8047 -1.9688,0 -3.0782,-1.4063 -1.3593,-1.7031 -1.3593,-5.5312 z m 1.7187,0 q 0,3.3437 0.7891,4.4531 0.789,1.1094 1.9297,1.1094 1.1562,0 1.9375,-1.1172 0.7812,-1.1172 0.7812,-4.4453 0,-3.3594 -0.7812,-4.4688 -0.7813,-1.1093 -1.9532,-1.1093 -1.1562,0 -1.8281,0.9843 -0.875,1.2344 -0.875,4.5938 z m 17.4382,5.0937 V 0 h -8.9843 q -0.0157,-0.6094 0.1875,-1.1562 0.3437,-0.9219 1.1015,-1.8126 0.7578,-0.8906 2.1797,-2.0624 2.2188,-1.8126 3,-2.875 0.7813,-1.0626 0.7813,-2.0157 0,-0.9843 -0.711,-1.6719 -0.7109,-0.6874 -1.8515,-0.6874 -1.2032,0 -1.9297,0.7265 -0.7266,0.7266 -0.7266,2.0078 l -1.7187,-0.1719 q 0.1718,-1.9218 1.3281,-2.9296 1.1562,-1.0078 3.0937,-1.0078 1.9532,0 3.0938,1.0859 1.1406,1.0859 1.1406,2.6953 0,0.8125 -0.3359,1.6016 -0.336,0.789 -1.1094,1.6562 -0.7734,0.8672 -2.5703,2.3984 -1.5,1.2657 -1.9297,1.711 -0.4297,0.4453 -0.7109,0.8984 z m 1.5945,-1.9531 1.7656,-0.1563 q 0.1875,1.2813 0.8985,1.9297 0.7109,0.6485 1.7109,0.6485 1.2031,0 2.0391,-0.9063 0.8359,-0.9062 0.8359,-2.4219 0,-1.4218 -0.8047,-2.25 -0.8047,-0.8281 -2.1015,-0.8281 -0.7969,0 -1.4454,0.3672 -0.6484,0.3672 -1.0234,0.9609 l -1.5781,-0.2031 1.3281,-7 h 6.7656 v 1.6094 h -5.4375 l -0.7343,3.6406 q 1.2343,-0.8437 2.5781,-0.8437 1.7812,0 3.0078,1.2344 1.2266,1.2343 1.2266,3.1718 0,1.8438 -1.0782,3.1875 -1.3125,1.6563 -3.5781,1.6563 -1.8594,0 -3.0312,-1.0391 -1.1719,-1.0391 -1.3438,-2.7578 z"
         id="path91" />
    </g>
    <g
       transform="translate(310,385)"
       style="font-size:20.5333px;font-family:SansSerif;color-interpolation:linearRGB;fill:#262626;stroke:#262626;color-rendering:optimizeQuality;image-rendering:optimizeQuality;text-rendering:geometricPrecision"
       id="g97">
      <path
         style="stroke:none"
         d="m 1.6562,0 v -15.0312 h 10.875 v 1.7656 h -8.875 v 4.6094 h 8.3126 v 1.7656 H 3.6562 v 5.1094 H 12.875 V 0 Z m 13.4286,0 v -10.8906 h 1.6563 v 1.5468 q 1.2031,-1.7968 3.4687,-1.7968 0.9844,0 1.8047,0.3594 0.8203,0.3593 1.2344,0.9296 0.414,0.5704 0.5703,1.3672 0.1094,0.5 0.1094,1.7813 V 0 h -1.8438 v -6.625 q 0,-1.125 -0.2187,-1.6875 -0.2188,-0.5625 -0.7657,-0.8906 -0.5468,-0.3281 -1.2812,-0.3281 -1.1875,0 -2.0391,0.7421 -0.8515,0.7422 -0.8515,2.836 V 0 Z m 18.8716,-3.5 1.9063,0.2344 q -0.4531,1.6718 -1.6719,2.5937 -1.2187,0.9219 -3.125,0.9219 -2.3906,0 -3.7891,-1.4766 -1.3984,-1.4765 -1.3984,-4.1328 0,-2.7344 1.4141,-4.2578 1.414,-1.5234 3.6797,-1.5234 2.1875,0 3.5703,1.4922 1.3828,1.4922 1.3828,4.1796 0,0.1719 -0.0156,0.5 h -8.125 q 0.1093,1.7969 1.0234,2.75 0.9141,0.9532 2.2734,0.9532 1.0157,0 1.7344,-0.5391 0.7188,-0.5391 1.1406,-1.6953 z m -6.0625,-2.9844 h 6.0782 q -0.125,-1.375 -0.7032,-2.0625 -0.875,-1.0781 -2.2812,-1.0781 -1.2656,0 -2.1328,0.8516 -0.8672,0.8515 -0.961,2.289 z M 37.8906,0 v -10.8906 h 1.6718 v 1.6562 q 0.625,-1.1562 1.1641,-1.5312 0.5391,-0.375 1.1953,-0.375 0.9219,0 1.8906,0.5937 l -0.6406,1.7188 q -0.6719,-0.4063 -1.3437,-0.4063 -0.6094,0 -1.0938,0.3672 -0.4844,0.3672 -0.6875,1.0078 -0.3125,0.9844 -0.3125,2.1563 V 0 Z m 6.5245,0.9062 1.7969,0.2657 Q 46.3214,2 46.837,2.375 q 0.6875,0.5156 1.875,0.5156 1.2813,0 1.9766,-0.5156 0.6953,-0.5156 0.9453,-1.4375 0.1406,-0.5625 0.125,-2.3594 Q 50.5558,0 48.7589,0 46.5089,0 45.2745,-1.6172 44.0401,-3.2344 44.0401,-5.5 q 0,-1.5625 0.5703,-2.8828 0.5704,-1.3203 1.6407,-2.0391 1.0703,-0.7187 2.5078,-0.7187 1.9375,0 3.1875,1.5625 v -1.3125 h 1.7031 v 9.4062 q 0,2.5469 -0.5234,3.6094 -0.5235,1.0625 -1.6407,1.6797 -1.1171,0.6172 -2.7578,0.6172 -1.9531,0 -3.1562,-0.875 -1.2031,-0.875 -1.1563,-2.6407 z m 1.5313,-6.5468 q 0,2.1406 0.8515,3.125 0.8516,0.9844 2.1329,0.9844 1.2656,0 2.125,-0.9766 0.8593,-0.9766 0.8593,-3.0703 0,-2 -0.8828,-3.0157 -0.8828,-1.0156 -2.1328,-1.0156 -1.2344,0 -2.0937,1 -0.8594,1 -0.8594,2.9688 z M 56.0836,4.1875 55.8805,2.4688 q 0.6094,0.1562 1.0625,0.1562 0.6094,0 0.9766,-0.2031 0.3672,-0.2031 0.6172,-0.5781 0.1718,-0.2813 0.5625,-1.375 0.0468,-0.1563 0.1562,-0.4532 l -4.125,-10.9062 h 1.9844 l 2.2656,6.3125 q 0.4375,1.1875 0.7969,2.5156 0.3125,-1.2656 0.75,-2.4844 l 2.3281,-6.3437 h 1.8438 L 60.9586,0.1875 q -0.6718,1.7969 -1.0312,2.4687 -0.5,0.9063 -1.1328,1.336 -0.6328,0.4297 -1.5235,0.4297 -0.5312,0 -1.1875,-0.2344 z M 79.2097,0 v -1.375 q -1.0468,1.625 -3.0468,1.625 -1.2969,0 -2.3907,-0.7188 -1.0937,-0.7187 -1.6953,-2.0078 -0.6015,-1.289 -0.6015,-2.9609 0,-1.625 0.5468,-2.9531 0.5469,-1.3282 1.6329,-2.0391 1.0859,-0.7109 2.4296,-0.7109 0.9844,0 1.75,0.414 0.7657,0.4141 1.25,1.086 v -5.3906 h 1.8282 V 0 Z M 73.366,-5.4375 q 0,2.0937 0.8828,3.1328 0.8828,1.0391 2.0859,1.0391 1.2032,0 2.0547,-0.9922 0.8516,-0.9922 0.8516,-3.0234 0,-2.2344 -0.8672,-3.2813 -0.8672,-1.0469 -2.1172,-1.0469 -1.2344,0 -2.0625,1.0078 -0.8281,1.0078 -0.8281,3.1641 z m 17.6529,1.9375 1.9062,0.2344 q -0.4531,1.6718 -1.6718,2.5937 -1.2188,0.9219 -3.125,0.9219 -2.3907,0 -3.7891,-1.4766 -1.3984,-1.4765 -1.3984,-4.1328 0,-2.7344 1.414,-4.2578 1.4141,-1.5234 3.6797,-1.5234 2.1875,0 3.5703,1.4922 1.3828,1.4922 1.3828,4.1796 0,0.1719 -0.0156,0.5 h -8.125 q 0.1094,1.7969 1.0234,2.75 0.9141,0.9532 2.2735,0.9532 1.0156,0 1.7344,-0.5391 0.7187,-0.5391 1.1406,-1.6953 z m -6.0625,-2.9844 h 6.0781 q -0.125,-1.375 -0.7031,-2.0625 -0.875,-1.0781 -2.2813,-1.0781 -1.2656,0 -2.1328,0.8516 -0.8672,0.8515 -0.9609,2.289 z M 94.9843,0 v -10.8906 h 1.6562 v 1.5468 q 1.2031,-1.7968 3.4688,-1.7968 0.9843,0 1.8046,0.3594 0.8204,0.3593 1.2344,0.9296 0.4141,0.5704 0.5703,1.3672 0.1094,0.5 0.1094,1.7813 V 0 h -1.8437 v -6.625 q 0,-1.125 -0.2188,-1.6875 -0.2187,-0.5625 -0.7656,-0.8906 -0.5469,-0.3281 -1.2813,-0.3281 -1.1875,0 -2.039,0.7421 -0.8516,0.7422 -0.8516,2.836 V 0 Z m 10.6685,-3.25 1.8281,-0.2812 q 0.1562,1.0937 0.8594,1.6796 0.7031,0.586 1.9687,0.586 1.2656,0 1.8828,-0.5235 0.6172,-0.5234 0.6172,-1.2109 0,-0.625 -0.5469,-0.9844 -0.375,-0.25 -1.8906,-0.625 -2.0312,-0.5156 -2.8125,-0.8906 -0.7812,-0.375 -1.1875,-1.0391 -0.4062,-0.664 -0.4062,-1.4609 0,-0.7188 0.3359,-1.3438 0.3359,-0.625 0.8984,-1.0312 0.4375,-0.3125 1.1797,-0.5391 0.7422,-0.2265 1.6016,-0.2265 1.2812,0 2.25,0.375 0.9687,0.375 1.4297,1 0.4609,0.625 0.6328,1.6875 l -1.8125,0.25 q -0.1094,-0.8438 -0.7031,-1.3203 -0.5938,-0.4766 -1.6719,-0.4766 -1.2656,0 -1.8125,0.4219 -0.5469,0.4219 -0.5469,0.9843 0,0.3594 0.2344,0.6563 0.2187,0.2969 0.7031,0.4844 0.2813,0.1093 1.625,0.4687 1.9688,0.5313 2.7422,0.8594 0.7734,0.3281 1.2109,0.9688 0.4375,0.6406 0.4375,1.5781 0,0.9219 -0.539,1.7422 -0.5391,0.8203 -1.5547,1.2656 -1.0156,0.4453 -2.2969,0.4453 -2.125,0 -3.2344,-0.8828 -1.1093,-0.8828 -1.4218,-2.6172 z m 11.0156,-9.6562 v -2.125 h 1.8437 v 2.125 z m 0,12.9062 v -10.8906 h 1.8437 V 0 Z m 8.5926,-1.6562 0.2656,1.6406 q -0.7812,0.1562 -1.4062,0.1562 -1,0 -1.5547,-0.3203 -0.5547,-0.3203 -0.7812,-0.8359 -0.2266,-0.5156 -0.2266,-2.1719 v -6.2656 h -1.3438 v -1.4375 h 1.3438 v -2.7032 l 1.8437,-1.0937 v 3.7969 h 1.8594 v 1.4375 h -1.8594 v 6.3593 q 0,0.7969 0.0938,1.0235 0.0937,0.2265 0.3125,0.3594 0.2187,0.1328 0.6406,0.1328 0.2969,0 0.8125,-0.0781 z m 1.5793,5.8437 -0.2032,-1.7187 q 0.6094,0.1562 1.0625,0.1562 0.6094,0 0.9766,-0.2031 0.3672,-0.2031 0.6172,-0.5781 0.1719,-0.2813 0.5625,-1.375 0.0469,-0.1563 0.1562,-0.4532 l -4.125,-10.9062 h 1.9844 l 2.2656,6.3125 q 0.4375,1.1875 0.7969,2.5156 0.3125,-1.2656 0.75,-2.4844 l 2.3281,-6.3437 h 1.8438 l -4.1406,11.0781 q -0.6719,1.7969 -1.0313,2.4687 -0.5,0.9063 -1.1328,1.336 -0.6328,0.4297 -1.5234,0.4297 -0.5313,0 -1.1875,-0.2344 z m 16.0636,-17.0937 v -2.125 h 1.8437 v 2.125 z m 0,12.9062 v -10.8906 h 1.8437 V 0 Z m 4.5614,0 v -10.8906 h 1.6562 v 1.5468 q 1.2031,-1.7968 3.4688,-1.7968 0.9843,0 1.8046,0.3594 0.8204,0.3593 1.2344,0.9296 0.4141,0.5704 0.5703,1.3672 0.1094,0.5 0.1094,1.7813 V 0 h -1.8437 v -6.625 q 0,-1.125 -0.2188,-1.6875 -0.2187,-0.5625 -0.7656,-0.8906 -0.5469,-0.3281 -1.2813,-0.3281 -1.1875,0 -2.039,0.7421 -0.8516,0.7422 -0.8516,2.836 V 0 Z m 16.3414,-4.2656 1.7969,-0.25 q 0.0625,1.7187 0.6406,2.3594 0.5782,0.6406 1.5938,0.6406 0.75,0 1.2891,-0.3438 0.539,-0.3437 0.7421,-0.9375 0.2032,-0.5937 0.2032,-1.875 v -10.3593 h 2 v 10.25 q 0,1.875 -0.461,2.914 -0.4609,1.0391 -1.4453,1.5781 -0.9844,0.5391 -2.3281,0.5391 -1.9688,0 -3.0234,-1.1328 -1.0547,-1.1328 -1.0079,-3.3828 z m 9.6563,4.5156 4.3594,-15.5312 h 1.4687 L 174.9474,0.25 Z M 180.5579,0 v -10.8906 h 1.6406 v 1.5312 q 0.5156,-0.7968 1.3672,-1.289 0.8515,-0.4922 1.9453,-0.4922 1.2031,0 1.9765,0.5078 0.7735,0.5078 1.086,1.3984 1.2969,-1.9062 3.375,-1.9062 1.6094,0 2.4844,0.8984 0.875,0.8984 0.875,2.7734 V 0 h -1.8438 v -6.8594 q 0,-1.1094 -0.1719,-1.5937 -0.1718,-0.4844 -0.6484,-0.7813 -0.4766,-0.2968 -1.1172,-0.2968 -1.1406,0 -1.8984,0.7578 -0.7578,0.7578 -0.7578,2.4453 V 0 h -1.8438 v -7.0781 q 0,-1.2344 -0.4531,-1.8438 -0.4531,-0.6093 -1.4844,-0.6093 -0.7812,0 -1.4375,0.4062 -0.6562,0.4062 -0.9531,1.1953 -0.2969,0.7891 -0.2969,2.2735 V 0 Z"
         id="path95" />
    </g>
    <g
       transform="translate(507,375)"
       style="font-size:16.4267px;font-family:SansSerif;color-interpolation:linearRGB;fill:#262626;stroke:#262626;color-rendering:optimizeQuality;image-rendering:optimizeQuality;text-rendering:geometricPrecision"
       id="g101">
      <path
         style="stroke:none"
         d="M 8.0625,-1.3594 V 0 H 0.4844 Q 0.4688,-0.5156 0.6562,-0.9844 0.9375,-1.75 1.5781,-2.5 2.2188,-3.25 3.4219,-4.2344 5.2812,-5.7656 5.9375,-6.6641 6.5938,-7.5625 6.5938,-8.3594 6.5938,-9.1875 6,-9.7656 q -0.5938,-0.5782 -1.5625,-0.5782 -1.0156,0 -1.625,0.6094 -0.6094,0.6094 -0.6094,1.6875 L 0.75,-8.1875 q 0.1562,-1.625 1.125,-2.4687 0.9688,-0.8438 2.5938,-0.8438 1.6562,0 2.6171,0.9141 0.961,0.914 0.961,2.2578 0,0.6875 -0.2813,1.3515 -0.2812,0.6641 -0.9375,1.3985 -0.6562,0.7343 -2.1719,2.0156 -1.2656,1.0625 -1.625,1.4453 -0.3593,0.3828 -0.5937,0.7578 z"
         id="path99" />
    </g>
    <g
       style="color-interpolation:linearRGB;fill:#262626;stroke:#262626;stroke-width:0.6667;stroke-linejoin:round;color-rendering:optimizeQuality;image-rendering:optimizeQuality;text-rendering:geometricPrecision"
       id="g123">
      <line
         y2="42"
         style="fill:none"
         x1="104"
         x2="104"
         y1="301"
         id="line103" />
      <line
         y2="42"
         style="fill:none"
         x1="724"
         x2="724"
         y1="301"
         id="line105" />
      <line
         y2="301"
         style="fill:none"
         x1="104"
         x2="110.2"
         y1="301"
         id="line107" />
      <line
         y2="219.2762"
         style="fill:none"
         x1="104"
         x2="110.2"
         y1="219.2762"
         id="line109" />
      <line
         y2="137.55231"
         style="fill:none"
         x1="104"
         x2="110.2"
         y1="137.55231"
         id="line111" />
      <line
         y2="55.828499"
         style="fill:none"
         x1="104"
         x2="110.2"
         y1="55.828499"
         id="line113" />
      <line
         y2="301"
         style="fill:none"
         x1="724"
         x2="717.79999"
         y1="301"
         id="line115" />
      <line
         y2="219.2762"
         style="fill:none"
         x1="724"
         x2="717.79999"
         y1="219.2762"
         id="line117" />
      <line
         y2="137.55231"
         style="fill:none"
         x1="724"
         x2="717.79999"
         y1="137.55231"
         id="line119" />
      <line
         y2="55.828499"
         style="fill:none"
         x1="724"
         x2="717.79999"
         y1="55.828499"
         id="line121" />
    </g>
    <g
       transform="translate(97.6,301)"
       style="font-size:18.6667px;font-family:SansSerif;color-interpolation:linearRGB;fill:#262626;stroke:#262626;color-rendering:optimizeQuality;image-rendering:optimizeQuality;text-rendering:geometricPrecision"
       id="g127">
      <path
         style="stroke:none"
         d="m -10.2188,0.2969 q 0,-2.4219 0.5,-3.8907 0.5,-1.4687 1.4766,-2.2656 0.9766,-0.7968 2.461,-0.7968 1.0937,0 1.9218,0.4374 0.8282,0.4376 1.3672,1.2735 0.5391,0.8359 0.8438,2.0234 0.3046,1.1875 0.3046,3.2188 0,2.3906 -0.4921,3.8593 -0.4922,1.4688 -1.4688,2.2735 -0.9765,0.8047 -2.4765,0.8047 -1.9688,0 -3.0782,-1.4063 -1.3594,-1.7031 -1.3594,-5.5312 z m 1.7188,0 q 0,3.3437 0.7891,4.4531 0.789,1.1094 1.9297,1.1094 1.1562,0 1.9374,-1.1172 0.7813,-1.1172 0.7813,-4.4453 0,-3.3594 -0.7813,-4.4688 -0.7812,-1.1093 -1.9531,-1.1093 -1.1562,0 -1.8281,0.9843 Q -8.5,-3.0625 -8.5,0.2969 Z"
         id="path125" />
    </g>
    <g
       transform="translate(97.6,219.2762)"
       style="font-size:18.6667px;font-family:SansSerif;color-interpolation:linearRGB;fill:#262626;stroke:#262626;color-rendering:optimizeQuality;image-rendering:optimizeQuality;text-rendering:geometricPrecision"
       id="g131">
      <path
         style="stroke:none"
         d="m -20.2188,3.4375 1.7657,-0.1563 q 0.1875,1.2813 0.8984,1.9297 0.7109,0.6485 1.7109,0.6485 1.2032,0 2.0391,-0.9063 0.8359,-0.9062 0.8359,-2.4219 0,-1.4218 -0.8046,-2.25 -0.8047,-0.8281 -2.1016,-0.8281 -0.7969,0 -1.4453,0.3672 -0.6485,0.3672 -1.0235,0.9609 l -1.5781,-0.2031 1.3281,-7 h 6.7657 v 1.6094 h -5.4375 L -18,-1.1719 q 1.2344,-0.8437 2.5781,-0.8437 1.7813,0 3.0078,1.2344 1.2266,1.2343 1.2266,3.1718 0,1.8438 -1.0781,3.1875 -1.3125,1.6563 -3.5782,1.6563 -1.8593,0 -3.0312,-1.0391 -1.1719,-1.0391 -1.3438,-2.7578 z M -9.843,0.2969 q 0,-2.4219 0.5,-3.8907 0.5,-1.4687 1.4765,-2.2656 0.9766,-0.7968 2.461,-0.7968 1.0937,0 1.9218,0.4374 0.8282,0.4376 1.3672,1.2735 0.5391,0.8359 0.8438,2.0234 0.3047,1.1875 0.3047,3.2188 0,2.3906 -0.4922,3.8593 -0.4922,1.4688 -1.4688,2.2735 -0.9765,0.8047 -2.4765,0.8047 -1.9688,0 -3.0782,-1.4063 Q -9.843,4.125 -9.843,0.2969 Z m 1.7187,0 q 0,3.3437 0.7891,4.4531 0.789,1.1094 1.9297,1.1094 1.1562,0 1.9375,-1.1172 0.7812,-1.1172 0.7812,-4.4453 0,-3.3594 -0.7812,-4.4688 -0.7813,-1.1093 -1.9532,-1.1093 -1.1562,0 -1.8281,0.9843 -0.875,1.2344 -0.875,4.5938 z"
         id="path129" />
    </g>
    <g
       transform="translate(97.6,137.5523)"
       style="font-size:18.6667px;font-family:SansSerif;color-interpolation:linearRGB;fill:#262626;stroke:#262626;color-rendering:optimizeQuality;image-rendering:optimizeQuality;text-rendering:geometricPrecision"
       id="g135">
      <path
         style="stroke:none"
         d="m -24.9219,7 h -1.6719 V -3.6406 q -0.5937,0.5781 -1.5781,1.1484 -0.9843,0.5703 -1.7656,0.8672 V -3.25 q 1.4063,-0.6562 2.4531,-1.5938 1.0469,-0.9374 1.4844,-1.8124 h 1.0781 z m 4.0789,-6.7031 q 0,-2.4219 0.5,-3.8907 0.5,-1.4687 1.4765,-2.2656 0.9766,-0.7968 2.461,-0.7968 1.0937,0 1.9218,0.4374 0.8282,0.4376 1.3672,1.2735 0.5391,0.8359 0.8438,2.0234 0.3047,1.1875 0.3047,3.2188 0,2.3906 -0.4922,3.8593 -0.4922,1.4688 -1.4688,2.2735 -0.9765,0.8047 -2.4765,0.8047 -1.9688,0 -3.0782,-1.4063 Q -20.843,4.125 -20.843,0.2969 Z m 1.7187,0 q 0,3.3437 0.7891,4.4531 0.789,1.1094 1.9297,1.1094 1.1562,0 1.9375,-1.1172 0.7812,-1.1172 0.7812,-4.4453 0,-3.3594 -0.7812,-4.4688 -0.7813,-1.1093 -1.9532,-1.1093 -1.1562,0 -1.8281,0.9843 -0.875,1.2344 -0.875,4.5938 z m 8.657,0 q 0,-2.4219 0.5,-3.8907 0.5,-1.4687 1.4765,-2.2656 0.9766,-0.7968 2.461,-0.7968 1.0937,0 1.9219,0.4374 0.8281,0.4376 1.3671,1.2735 0.5391,0.8359 0.8438,2.0234 0.3047,1.1875 0.3047,3.2188 0,2.3906 -0.4922,3.8593 -0.4922,1.4688 -1.4688,2.2735 -0.9765,0.8047 -2.4765,0.8047 -1.9688,0 -3.0781,-1.4063 -1.3594,-1.7031 -1.3594,-5.5312 z m 1.7187,0 q 0,3.3437 0.7891,4.4531 0.7891,1.1094 1.9297,1.1094 1.1562,0 1.9375,-1.1172 0.7812,-1.1172 0.7812,-4.4453 0,-3.3594 -0.7812,-4.4688 -0.7813,-1.1093 -1.9531,-1.1093 -1.1563,0 -1.8282,0.9843 -0.875,1.2344 -0.875,4.5938 z"
         id="path133" />
    </g>
    <g
       transform="translate(97.6,55.8285)"
       style="font-size:18.6667px;font-family:SansSerif;color-interpolation:linearRGB;fill:#262626;stroke:#262626;color-rendering:optimizeQuality;image-rendering:optimizeQuality;text-rendering:geometricPrecision"
       id="g139">
      <path
         style="stroke:none"
         d="m -24.9219,7 h -1.6719 V -3.6406 q -0.5937,0.5781 -1.5781,1.1484 -0.9843,0.5703 -1.7656,0.8672 V -3.25 q 1.4063,-0.6562 2.4531,-1.5938 1.0469,-0.9374 1.4844,-1.8124 h 1.0781 z m 4.0789,-3.5625 1.7656,-0.1563 q 0.1875,1.2813 0.8984,1.9297 0.711,0.6485 1.711,0.6485 1.2031,0 2.039,-0.9063 0.836,-0.9062 0.836,-2.4219 0,-1.4218 -0.8047,-2.25 -0.8047,-0.8281 -2.1016,-0.8281 -0.7969,0 -1.4453,0.3672 -0.6484,0.3672 -1.0234,0.9609 l -1.5782,-0.2031 1.3282,-7 h 6.7656 v 1.6094 h -5.4375 l -0.7344,3.6406 q 1.2344,-0.8437 2.5781,-0.8437 1.7813,0 3.0079,1.2344 1.2265,1.2343 1.2265,3.1718 0,1.8438 -1.0781,3.1875 -1.3125,1.6563 -3.5781,1.6563 -1.8594,0 -3.0313,-1.0391 -1.1719,-1.0391 -1.3437,-2.7578 z m 10.3757,-3.1406 q 0,-2.4219 0.5,-3.8907 0.5,-1.4687 1.4765,-2.2656 0.9766,-0.7968 2.461,-0.7968 1.0937,0 1.9219,0.4374 0.8281,0.4376 1.3671,1.2735 0.5391,0.8359 0.8438,2.0234 0.3047,1.1875 0.3047,3.2188 0,2.3906 -0.4922,3.8593 -0.4922,1.4688 -1.4688,2.2735 -0.9765,0.8047 -2.4765,0.8047 -1.9688,0 -3.0781,-1.4063 -1.3594,-1.7031 -1.3594,-5.5312 z m 1.7187,0 q 0,3.3437 0.7891,4.4531 0.7891,1.1094 1.9297,1.1094 1.1562,0 1.9375,-1.1172 0.7812,-1.1172 0.7812,-4.4453 0,-3.3594 -0.7812,-4.4688 -0.7813,-1.1093 -1.9531,-1.1093 -1.1563,0 -1.8282,0.9843 -0.875,1.2344 -0.875,4.5938 z"
         id="path137" />
    </g>
    <g
       transform="rotate(-90,116.54995,54.94995)"
       style="font-size:20.5333px;font-family:SansSerif;color-interpolation:linearRGB;fill:#262626;stroke:#262626;color-rendering:optimizeQuality;image-rendering:optimizeQuality;text-rendering:geometricPrecision"
       id="g143">
      <path
         style="stroke:none"
         d="M -21.0625,-9.8281 -19.1875,-10 q 0.1406,1.1406 0.625,1.8594 0.4844,0.7187 1.5156,1.164 1.0313,0.4454 2.3125,0.4454 1.125,0 2,-0.336 0.875,-0.3359 1.3047,-0.9297 Q -11,-8.3906 -11,-9.0781 q 0,-0.7031 -0.4141,-1.2344 -0.414,-0.5313 -1.3515,-0.8906 -0.6094,-0.2344 -2.6797,-0.7344 -2.0703,-0.5 -2.8985,-0.9375 -1.0781,-0.5625 -1.6093,-1.3984 -0.5313,-0.836 -0.5313,-1.8672 0,-1.1406 0.6485,-2.1328 0.6484,-0.9922 1.8906,-1.5 1.2422,-0.5078 2.7578,-0.5078 1.6719,0 2.9453,0.5312 1.2734,0.5312 1.961,1.5781 0.6874,1.0469 0.7343,2.375 l -1.9062,0.1407 q -0.1563,-1.4219 -1.0391,-2.1485 -0.8828,-0.7265 -2.6172,-0.7265 -1.7968,0 -2.625,0.6562 -0.8281,0.6562 -0.8281,1.5938 0,0.8124 0.5781,1.3281 0.5782,0.5312 3,1.0781 2.4219,0.5469 3.3282,0.9531 1.3124,0.6094 1.9374,1.5391 0.625,0.9297 0.625,2.1328 0,1.2031 -0.6874,2.2656 -0.6876,1.0625 -1.9688,1.6485 -1.2812,0.5859 -2.8906,0.5859 -2.0469,0 -3.4297,-0.5938 -1.3828,-0.5937 -2.1641,-1.789 -0.7812,-1.1953 -0.8281,-2.6953 z M -6.7121,-5 v -15.0312 h 2.0469 L 3.2254,-8.2344 V -20.0312 H 5.1317 V -5 H 3.1004 L -4.8058,-16.8125 V -5 Z m 14.8895,0 v -15.0312 h 6.6563 q 2.0156,0 3.0625,0.4062 1.0469,0.4062 1.6719,1.4297 0.625,1.0234 0.625,2.2578 0,1.6094 -1.0391,2.7031 -1.0391,1.0938 -3.1953,1.3906 0.7812,0.3907 1.2031,0.75 0.8594,0.7969 1.6406,2 L 21.4274,-5 h -2.5156 l -1.9844,-3.125 q -0.875,-1.3594 -1.4375,-2.0781 -0.5625,-0.7188 -1.0078,-1 -0.4453,-0.2813 -0.8984,-0.4063 -0.3438,-0.0625 -1.1094,-0.0625 H 10.1618 V -5 Z m 1.9844,-8.3906 h 4.2813 q 1.3593,0 2.125,-0.2891 0.7656,-0.2891 1.1718,-0.9062 0.4063,-0.6172 0.4063,-1.3516 0,-1.0625 -0.7813,-1.75 -0.7812,-0.6875 -2.4531,-0.6875 h -4.75 z"
         id="path141" />
    </g>
    <g
       transform="translate(414.0004,38.15)"
       style="font-weight:bold;font-size:20.5333px;font-family:SansSerif;color-interpolation:linearRGB;color-rendering:optimizeQuality;image-rendering:optimizeQuality;text-rendering:geometricPrecision"
       id="g147">
      <path
         style="stroke:none"
         d="m -26.4375,-5 v -15.0312 h 2.9531 L -17.3281,-10 v -10.0312 h 2.8125 V -5 h -3.0469 l -6.0625,-9.7969 V -5 Z m 14.1083,-5.5938 q 0,-1.4374 0.7031,-2.7812 0.7031,-1.3438 2,-2.0547 1.2969,-0.7109 2.9062,-0.7109 2.4688,0 4.0469,1.6094 1.5781,1.6093 1.5781,4.0624 0,2.4688 -1.5937,4.0938 -1.5938,1.625 -4.0156,1.625 -1.5,0 -2.8594,-0.6797 -1.3594,-0.6797 -2.0625,-1.9844 -0.7031,-1.3047 -0.7031,-3.1797 z m 2.9531,0.1563 q 0,1.6094 0.7656,2.4687 0.7656,0.8594 1.8906,0.8594 1.1407,0 1.8985,-0.8594 0.7578,-0.8593 0.7578,-2.5 0,-1.5937 -0.7578,-2.4531 -0.7578,-0.8593 -1.8985,-0.8593 -1.125,0 -1.8906,0.8593 -0.7656,0.8594 -0.7656,2.4844 z m 10.2444,-6.9219 v -2.6718 h 2.8906 v 2.6718 z M 0.8683,-5 V -15.8906 H 3.7589 V -5 Z m 4.7043,-3.1094 2.8906,-0.4375 q 0.1719,0.8438 0.7422,1.2813 0.5703,0.4375 1.5859,0.4375 1.1094,0 1.6719,-0.4219 0.375,-0.2812 0.375,-0.7656 0,-0.3282 -0.2031,-0.5469 -0.2032,-0.2031 -0.9532,-0.375 -3.4843,-0.7656 -4.4218,-1.4063 -1.2969,-0.875 -1.2969,-2.4531 0,-1.4062 1.1172,-2.375 1.1172,-0.9687 3.4609,-0.9687 2.25,0 3.3359,0.7265 1.086,0.7266 1.4922,2.1641 l -2.7187,0.5 q -0.1719,-0.6406 -0.6641,-0.9766 -0.4922,-0.3359 -1.3828,-0.3359 -1.1406,0 -1.6406,0.3125 -0.3281,0.2344 -0.3281,0.5938 0,0.2968 0.2968,0.5156 0.3907,0.2812 2.6875,0.8047 2.2969,0.5234 3.2188,1.289 0.9062,0.7657 0.9062,2.1407 0,1.5 -1.2578,2.5781 -1.2578,1.0781 -3.6953,1.0781 -2.2344,0 -3.5312,-0.9062 -1.2969,-0.9063 -1.6875,-2.4532 z m 18.731,-0.3594 2.875,0.4844 q -0.5625,1.5782 -1.7579,2.4063 -1.1953,0.8281 -2.9765,0.8281 -2.8438,0 -4.2031,-1.8594 -1.0782,-1.4844 -1.0782,-3.75 0,-2.7031 1.4141,-4.2422 1.4141,-1.539 3.5703,-1.539 2.4375,0 3.8438,1.6094 1.4062,1.6093 1.3437,4.9218 h -7.2187 q 0.0312,1.2813 0.6953,1.9922 0.664,0.711 1.664,0.711 0.6719,0 1.1328,-0.3672 0.461,-0.3672 0.6954,-1.1954 z m 0.1718,-2.9062 q -0.0312,-1.25 -0.6484,-1.9062 -0.6172,-0.6563 -1.5078,-0.6563 -0.9375,0 -1.5469,0.6875 -0.625,0.6875 -0.6094,1.875 z"
         id="path145" />
    </g>
    <g
       style="color-interpolation:linearRGB;stroke-width:4;stroke-linecap:butt;stroke-linejoin:round;color-rendering:optimizeQuality;image-rendering:optimizeQuality;text-rendering:geometricPrecision"
       id="g151">
      <path
         d="m 107.1,275.5136 3.1,-15.6313 3.1,-11.7981 3.1,-9.6738 3.1,-8.2898 3.1,-7.3002 3.1,-6.5483 3.1,-5.9526 3.1,-5.4654 3.1,-5.0577 3.1,-4.71 3.1,-4.4088 3.1,-4.1449 3.1,-3.9112 3.1,-3.7023 3.1,-3.5143 3.1,-3.344 3.1,-3.1889 3.1,-3.0469 3.1,-2.9161 3.1,-2.7956 3.1,-2.6838 3.1,-2.5799 3.1,-2.483 3.1,-2.3924 3.1,-2.3077 3.1,-2.228 3.1,-2.153 3.1,-2.0823 3.1,-2.0155 3.1,-1.9524 3.1,-1.8925 3.1,-1.8358 3.1,-1.7818 3.1,-1.7305 3.1,-1.6816 3.1,-1.6349 3.1,-1.5905 3.1,-1.5479 3.1,-1.5073 3.1,-1.4683 3.1,-1.431 3.1,-1.3952 3.1,-1.3609 3.1,-1.3279 3.1,-1.2962 3.1,-1.2658 3.1,-1.2364 3.1,-1.2081 3.1,-1.1809 3.1,-1.1546 3.1,-1.1293 3.1,-1.1049 3.1,-1.0812 3.1,-1.0584 3.1,-1.0364 3.1,-1.015 3.1,-0.9944 3.1,-0.9744 3.1,-0.955 3.1,-0.9363 3.1,-0.9181 3.1,-0.9005 3.1,-0.8834 3.1,-0.8667 3.1,-0.8507 3.1,-0.835 3.1,-0.8198 3.1,-0.8051 3.1,-0.7907 3.1,-0.7767 3.1,-0.7632 3.1,-0.7499 3.1,-0.7371 3.1,-0.7246 3.1,-0.7124 3.1,-0.7005 3.1,-0.689 3.1,-0.6776 3.1,-0.6667 3.1,-0.656 3.1,-0.6455 3.1,-0.6354 3.1,-0.6254 3.1,-0.6156 3.1,-0.6062 3.1,-0.597 3.1,-0.5879 3.1,-0.5791 3.1,-0.5705 3.1,-0.562 3.1,-0.5538 3.1,-0.5457 3.1,-0.5379 3.1,-0.5302 3.1,-0.5226 3.1,-0.5153 3.1,-0.5081 3.1,-0.501 3.1,-0.4941 3.1,-0.4874 3.1,-0.4807 3.1,-0.4742 3.1,-0.4679 3.1,-0.4617 3.1,-0.4556 3.1,-0.4496 3.1,-0.4437 3.1,-0.4381 3.1,-0.4324 3.1,-0.4269 3.1,-0.4214 3.1,-0.4162 3.1,-0.411 3.1,-0.4058 3.1,-0.4009 3.1,-0.3959 3.1,-0.3912 3.1,-0.3864 3.1,-0.3817 3.1,-0.3772 3.1,-0.3727 3.1,-0.3683 3.1,-0.364 3.1,-0.3597 3.1,-0.3556 3.1,-0.3515 3.1,-0.3475 3.1,-0.3435 3.1,-0.3396 3.1,-0.3358 3.1,-0.3321 3.1,-0.3283 3.1,-0.3248 3.1,-0.3211 3.1,-0.3177 3.1,-0.3142 3.1,-0.3108 3.1,-0.3075 3.1,-0.3042 3.1,-0.301 3.1,-0.2977 3.1,-0.2947 3.1,-0.2916 3.1,-0.2885 3.1,-0.2856 3.1,-0.2826 3.1,-0.2798 3.1,-0.2768 3.1,-0.2741 3.1,-0.2714 3.1,-0.2686 3.1,-0.2659 3.1,-0.2633 3.1,-0.2607 3.1,-0.2582 3.1,-0.2556 3.1,-0.2531 3.1,-0.2507 3.1,-0.2484 3.1,-0.2459 3.1,-0.2435 3.1,-0.2413 3.1,-0.239 3.1,-0.2367 3.1,-0.2346 3.1,-0.2323 3.1,-0.2302 3.1,-0.2281 3.1,-0.226 3.1,-0.224 3.1,-0.2218 3.1,-0.2199 3.1,-0.218 3.1,-0.216 3.1,-0.214 3.1,-0.2121 3.1,-0.2103 3.1,-0.2084 3.1,-0.2066 3.1,-0.2048 3.1,-0.2031 3.1,-0.2012 3.1,-0.1996 3.1,-0.1978 3.1,-0.1962 3.1,-0.1945 3.1,-0.1928 3.1,-0.1912 3.1,-0.1896 3.1,-0.1881 3.1,-0.1864 3.1,-0.185 3.1,-0.1834 3.1,-0.1819 3.1,-0.1804 3.1,-0.179 3.1,-0.1775 3.1,-0.176 L 724,42"
         style="fill:none;fill-rule:evenodd"
         id="path149" />
    </g>
    <text
       xml:space="preserve"
       style="font-size:18.6667px;line-height:1.25;font-family:Arial;-inkscape-font-specification:Arial;stroke-width:0.3;stroke-miterlimit:10;stroke-dasharray:none"
       x="770.73669"
       y="324.0137"
       id="text986"><tspan
         sodipodi:role="line"
         id="tspan984"
         x="770.73669"
         y="324.0137"
         style="font-style:normal;font-variant:normal;font-weight:normal;font-stretch:normal;font-size:18.6667px;font-family:Arial;-inkscape-font-specification:Arial;stroke-width:0.3;stroke-miterlimit:10;stroke-dasharray:none">Original SNR (no averaging)</tspan></text>
    <text
       xml:space="preserve"
       style="font-style:normal;font-weight:normal;font-size:18.6667px;line-height:1.25;font-family:Arial;-inkscape-font-specification:Arial;color-interpolation:auto;fill:#2626ff;fill-opacity:1;stroke:#2626ff;stroke-width:0.3;stroke-linecap:square;stroke-linejoin:miter;stroke-miterlimit:10;stroke-dasharray:none;stroke-dashoffset:0;stroke-opacity:1;color-rendering:auto;image-rendering:auto;shape-rendering:auto;text-rendering:auto"
       x="770.16095"
       y="349.11984"
       id="text986-3"><tspan
         sodipodi:role="line"
         id="tspan984-7"
         x="770.16095"
         y="349.11984"
         style="font-style:normal;font-variant:normal;font-weight:normal;font-stretch:normal;font-size:18.6667px;font-family:Arial;-inkscape-font-specification:Arial;fill:#2626ff;fill-opacity:1;stroke:#2626ff;stroke-width:0.3;stroke-miterlimit:10;stroke-dasharray:none;stroke-opacity:1">Two frames averaged</tspan></text>
  </g>
</svg>
